<?xml version="1.0" encoding="UTF-8"?>
<svg xmlns="http://www.w3.org/2000/svg" xmlns:xlink="http://www.w3.org/1999/xlink" width="368.754pt" height="251.212pt" viewBox="0 0 368.754 251.212">
<defs>
<g>
<g id="glyph-0-0">
<path d="M 1.78125 -1.140625 C 1.375 -0.484375 1 -0.34375 0.5625 -0.3125 C 0.4375 -0.296875 0.34375 -0.296875 0.34375 -0.109375 C 0.34375 -0.046875 0.390625 0 0.484375 0 C 0.75 0 1.046875 -0.03125 1.328125 -0.03125 C 1.65625 -0.03125 2 0 2.328125 0 C 2.390625 0 2.515625 0 2.515625 -0.1875 C 2.515625 -0.296875 2.421875 -0.3125 2.359375 -0.3125 C 2.125 -0.328125 1.890625 -0.40625 1.890625 -0.65625 C 1.890625 -0.78125 1.953125 -0.890625 2.03125 -1.03125 L 2.78125 -2.296875 L 5.28125 -2.296875 C 5.296875 -2.09375 5.4375 -0.734375 5.4375 -0.640625 C 5.4375 -0.34375 4.921875 -0.3125 4.71875 -0.3125 C 4.578125 -0.3125 4.484375 -0.3125 4.484375 -0.109375 C 4.484375 0 4.59375 0 4.625 0 C 5.03125 0 5.453125 -0.03125 5.859375 -0.03125 C 6.109375 -0.03125 6.734375 0 6.984375 0 C 7.046875 0 7.171875 0 7.171875 -0.203125 C 7.171875 -0.3125 7.0625 -0.3125 6.9375 -0.3125 C 6.3125 -0.3125 6.3125 -0.375 6.296875 -0.671875 L 5.6875 -6.875 C 5.671875 -7.078125 5.671875 -7.109375 5.5 -7.109375 C 5.34375 -7.109375 5.296875 -7.046875 5.234375 -6.953125 Z M 2.96875 -2.609375 L 4.921875 -5.890625 L 5.25 -2.609375 Z M 2.96875 -2.609375 "/>
</g>
<g id="glyph-0-1">
<path d="M 1.59375 -0.78125 C 1.484375 -0.390625 1.46875 -0.3125 0.6875 -0.3125 C 0.515625 -0.3125 0.421875 -0.3125 0.421875 -0.109375 C 0.421875 0 0.5 0 0.6875 0 L 4.234375 0 C 5.796875 0 6.96875 -1.171875 6.96875 -2.140625 C 6.96875 -2.859375 6.40625 -3.4375 5.4375 -3.546875 C 6.46875 -3.734375 7.515625 -4.46875 7.515625 -5.421875 C 7.515625 -6.15625 6.859375 -6.78125 5.671875 -6.78125 L 2.328125 -6.78125 C 2.140625 -6.78125 2.03125 -6.78125 2.03125 -6.59375 C 2.03125 -6.484375 2.125 -6.484375 2.3125 -6.484375 C 2.328125 -6.484375 2.53125 -6.484375 2.6875 -6.453125 C 2.875 -6.4375 2.96875 -6.421875 2.96875 -6.296875 C 2.96875 -6.265625 2.953125 -6.234375 2.921875 -6.109375 Z M 3.09375 -3.640625 L 3.703125 -6.109375 C 3.796875 -6.453125 3.8125 -6.484375 4.25 -6.484375 L 5.53125 -6.484375 C 6.40625 -6.484375 6.609375 -5.890625 6.609375 -5.453125 C 6.609375 -4.578125 5.75 -3.640625 4.546875 -3.640625 Z M 2.640625 -0.3125 C 2.5 -0.3125 2.484375 -0.3125 2.421875 -0.3125 C 2.328125 -0.328125 2.296875 -0.34375 2.296875 -0.421875 C 2.296875 -0.453125 2.296875 -0.46875 2.34375 -0.640625 L 3.03125 -3.421875 L 4.90625 -3.421875 C 5.859375 -3.421875 6.046875 -2.6875 6.046875 -2.25 C 6.046875 -1.265625 5.171875 -0.3125 4 -0.3125 Z M 2.640625 -0.3125 "/>
</g>
<g id="glyph-0-2">
<path d="M 7.546875 -6.90625 C 7.546875 -6.9375 7.53125 -7 7.4375 -7 C 7.40625 -7 7.40625 -7 7.296875 -6.890625 L 6.59375 -6.125 C 6.515625 -6.265625 6.046875 -7 4.953125 -7 C 2.734375 -7 0.5 -4.8125 0.5 -2.5 C 0.5 -0.859375 1.671875 0.21875 3.1875 0.21875 C 4.046875 0.21875 4.8125 -0.171875 5.34375 -0.640625 C 6.265625 -1.453125 6.421875 -2.359375 6.421875 -2.390625 C 6.421875 -2.484375 6.328125 -2.484375 6.3125 -2.484375 C 6.25 -2.484375 6.203125 -2.46875 6.1875 -2.390625 C 6.09375 -2.09375 5.859375 -1.390625 5.171875 -0.8125 C 4.484375 -0.265625 3.859375 -0.09375 3.34375 -0.09375 C 2.453125 -0.09375 1.40625 -0.609375 1.40625 -2.15625 C 1.40625 -2.71875 1.609375 -4.328125 2.609375 -5.5 C 3.203125 -6.203125 4.140625 -6.703125 5.03125 -6.703125 C 6.046875 -6.703125 6.625 -5.9375 6.625 -4.78125 C 6.625 -4.375 6.59375 -4.375 6.59375 -4.265625 C 6.59375 -4.171875 6.703125 -4.171875 6.75 -4.171875 C 6.875 -4.171875 6.875 -4.1875 6.921875 -4.375 Z M 7.546875 -6.90625 "/>
</g>
<g id="glyph-0-3">
<path d="M 7.578125 -6.015625 C 7.671875 -6.375 7.6875 -6.484375 8.421875 -6.484375 C 8.671875 -6.484375 8.75 -6.484375 8.75 -6.671875 C 8.75 -6.78125 8.640625 -6.78125 8.609375 -6.78125 C 8.34375 -6.78125 7.625 -6.75 7.34375 -6.75 C 7.0625 -6.75 6.34375 -6.78125 6.0625 -6.78125 C 5.984375 -6.78125 5.875 -6.78125 5.875 -6.59375 C 5.875 -6.484375 5.96875 -6.484375 6.15625 -6.484375 C 6.171875 -6.484375 6.359375 -6.484375 6.53125 -6.453125 C 6.703125 -6.4375 6.796875 -6.421875 6.796875 -6.296875 C 6.796875 -6.265625 6.78125 -6.234375 6.75 -6.109375 L 6.15625 -3.6875 L 3.125 -3.6875 L 3.71875 -6.015625 C 3.8125 -6.375 3.828125 -6.484375 4.546875 -6.484375 C 4.8125 -6.484375 4.890625 -6.484375 4.890625 -6.671875 C 4.890625 -6.78125 4.78125 -6.78125 4.75 -6.78125 C 4.46875 -6.78125 3.75 -6.75 3.484375 -6.75 C 3.1875 -6.75 2.484375 -6.78125 2.203125 -6.78125 C 2.109375 -6.78125 2 -6.78125 2 -6.59375 C 2 -6.484375 2.09375 -6.484375 2.28125 -6.484375 C 2.3125 -6.484375 2.5 -6.484375 2.65625 -6.453125 C 2.84375 -6.4375 2.9375 -6.421875 2.9375 -6.296875 C 2.9375 -6.265625 2.921875 -6.234375 2.890625 -6.109375 L 1.5625 -0.78125 C 1.453125 -0.390625 1.4375 -0.3125 0.65625 -0.3125 C 0.484375 -0.3125 0.390625 -0.3125 0.390625 -0.109375 C 0.390625 0 0.5 0 0.53125 0 C 0.8125 0 1.515625 -0.03125 1.78125 -0.03125 C 2 -0.03125 2.21875 -0.015625 2.421875 -0.015625 C 2.640625 -0.015625 2.859375 0 3.078125 0 C 3.15625 0 3.265625 0 3.265625 -0.203125 C 3.265625 -0.3125 3.1875 -0.3125 2.984375 -0.3125 C 2.625 -0.3125 2.34375 -0.3125 2.34375 -0.484375 C 2.34375 -0.546875 2.359375 -0.59375 2.375 -0.65625 L 3.046875 -3.375 L 6.078125 -3.375 C 5.671875 -1.734375 5.4375 -0.78125 5.390625 -0.640625 C 5.296875 -0.3125 5.109375 -0.3125 4.484375 -0.3125 C 4.34375 -0.3125 4.25 -0.3125 4.25 -0.109375 C 4.25 0 4.375 0 4.390625 0 C 4.671875 0 5.375 -0.03125 5.65625 -0.03125 C 5.859375 -0.03125 6.078125 -0.015625 6.296875 -0.015625 C 6.515625 -0.015625 6.734375 0 6.9375 0 C 7.015625 0 7.140625 0 7.140625 -0.203125 C 7.140625 -0.3125 7.046875 -0.3125 6.859375 -0.3125 C 6.484375 -0.3125 6.21875 -0.3125 6.21875 -0.484375 C 6.21875 -0.546875 6.234375 -0.59375 6.234375 -0.65625 Z M 7.578125 -6.015625 "/>
</g>
<g id="glyph-0-4">
<path d="M 7.359375 -4.328125 C 7.359375 -5.9375 6.296875 -7 4.8125 -7 C 2.671875 -7 0.484375 -4.75 0.484375 -2.4375 C 0.484375 -0.78125 1.59375 0.21875 3.03125 0.21875 C 5.140625 0.21875 7.359375 -1.953125 7.359375 -4.328125 Z M 3.09375 -0.046875 C 2.109375 -0.046875 1.40625 -0.84375 1.40625 -2.15625 C 1.40625 -2.59375 1.546875 -4.046875 2.3125 -5.203125 C 3 -6.234375 3.96875 -6.75 4.765625 -6.75 C 5.578125 -6.75 6.46875 -6.203125 6.46875 -4.71875 C 6.46875 -4 6.203125 -2.453125 5.21875 -1.234375 C 4.734375 -0.625 3.921875 -0.046875 3.09375 -0.046875 Z M 3.09375 -0.046875 "/>
</g>
<g id="glyph-1-0">
<path d="M 2.328125 -4.421875 C 2.328125 -4.609375 2.3125 -4.609375 2.125 -4.609375 C 1.671875 -4.171875 1.046875 -4.171875 0.765625 -4.171875 L 0.765625 -3.921875 C 0.921875 -3.921875 1.390625 -3.921875 1.765625 -4.109375 L 1.765625 -0.5625 C 1.765625 -0.34375 1.765625 -0.25 1.078125 -0.25 L 0.8125 -0.25 L 0.8125 0 C 0.9375 0 1.78125 -0.03125 2.046875 -0.03125 C 2.265625 -0.03125 3.140625 0 3.28125 0 L 3.28125 -0.25 L 3.03125 -0.25 C 2.328125 -0.25 2.328125 -0.34375 2.328125 -0.5625 Z M 2.328125 -4.421875 "/>
</g>
<g id="glyph-1-1">
<path d="M 3.515625 -1.265625 L 3.28125 -1.265625 C 3.25 -1.109375 3.1875 -0.703125 3.09375 -0.625 C 3.03125 -0.59375 2.5 -0.59375 2.40625 -0.59375 L 1.125 -0.59375 C 1.859375 -1.234375 2.09375 -1.4375 2.515625 -1.765625 C 3.03125 -2.171875 3.515625 -2.59375 3.515625 -3.265625 C 3.515625 -4.109375 2.78125 -4.609375 1.890625 -4.609375 C 1.015625 -4.609375 0.4375 -4.015625 0.4375 -3.375 C 0.4375 -3.015625 0.734375 -2.984375 0.8125 -2.984375 C 0.96875 -2.984375 1.171875 -3.09375 1.171875 -3.34375 C 1.171875 -3.484375 1.125 -3.71875 0.765625 -3.71875 C 0.984375 -4.21875 1.453125 -4.359375 1.78125 -4.359375 C 2.46875 -4.359375 2.84375 -3.828125 2.84375 -3.265625 C 2.84375 -2.65625 2.40625 -2.171875 2.1875 -1.921875 L 0.5 -0.265625 C 0.4375 -0.203125 0.4375 -0.1875 0.4375 0 L 3.296875 0 Z M 3.515625 -1.265625 "/>
</g>
<g id="glyph-2-0">
<path d="M 1.328125 -0.546875 C 1.265625 -0.3125 1.25 -0.25 0.703125 -0.25 C 0.59375 -0.25 0.5 -0.25 0.5 -0.109375 C 0.5 0 0.578125 0 0.703125 0 L 3.40625 0 C 4.5625 0 5.46875 -0.796875 5.46875 -1.484375 C 5.46875 -1.984375 5.015625 -2.40625 4.28125 -2.484375 C 5.125 -2.640625 5.8125 -3.15625 5.8125 -3.765625 C 5.8125 -4.296875 5.28125 -4.75 4.375 -4.75 L 1.84375 -4.75 C 1.71875 -4.75 1.625 -4.75 1.625 -4.59375 C 1.625 -4.5 1.703125 -4.5 1.84375 -4.5 C 1.859375 -4.5 1.984375 -4.5 2.109375 -4.484375 C 2.265625 -4.46875 2.28125 -4.453125 2.28125 -4.390625 C 2.28125 -4.375 2.28125 -4.34375 2.25 -4.234375 Z M 2.4375 -2.5625 L 2.859375 -4.265625 C 2.90625 -4.484375 2.921875 -4.5 3.21875 -4.5 L 4.265625 -4.5 C 4.984375 -4.5 5.140625 -4.03125 5.140625 -3.765625 C 5.140625 -3.203125 4.5 -2.5625 3.578125 -2.5625 Z M 2.09375 -0.25 C 1.890625 -0.25 1.875 -0.25 1.875 -0.3125 C 1.875 -0.328125 1.875 -0.359375 1.90625 -0.46875 L 2.390625 -2.375 L 3.859375 -2.375 C 4.515625 -2.375 4.765625 -1.9375 4.765625 -1.53125 C 4.765625 -0.84375 4.0625 -0.25 3.21875 -0.25 Z M 2.09375 -0.25 "/>
</g>
<g id="glyph-2-1">
<path d="M 5.859375 -4.796875 C 5.859375 -4.828125 5.84375 -4.890625 5.765625 -4.890625 C 5.71875 -4.890625 5.703125 -4.875 5.640625 -4.8125 L 5.140625 -4.265625 C 5.078125 -4.359375 4.6875 -4.890625 3.828125 -4.890625 C 2.140625 -4.890625 0.484375 -3.390625 0.484375 -1.828125 C 0.484375 -0.6875 1.375 0.140625 2.625 0.140625 C 3 0.140625 3.671875 0.0625 4.375 -0.546875 C 4.9375 -1.015625 5.078125 -1.609375 5.078125 -1.671875 C 5.078125 -1.765625 5 -1.765625 4.96875 -1.765625 C 4.875 -1.765625 4.859375 -1.71875 4.84375 -1.640625 C 4.546875 -0.703125 3.578125 -0.109375 2.734375 -0.109375 C 2 -0.109375 1.1875 -0.5 1.1875 -1.609375 C 1.1875 -1.8125 1.234375 -2.90625 2.03125 -3.78125 C 2.515625 -4.3125 3.234375 -4.640625 3.90625 -4.640625 C 4.703125 -4.640625 5.1875 -4.046875 5.1875 -3.28125 C 5.1875 -3.078125 5.15625 -3.03125 5.15625 -2.984375 C 5.15625 -2.90625 5.25 -2.90625 5.28125 -2.90625 C 5.390625 -2.90625 5.390625 -2.921875 5.4375 -3.046875 Z M 5.859375 -4.796875 "/>
</g>
</g>
<clipPath id="clip-0">
<path clip-rule="nonzero" d="M 0.453125 106 L 131 106 L 131 237 L 0.453125 237 Z M 0.453125 106 "/>
</clipPath>
<clipPath id="clip-1">
<path clip-rule="nonzero" d="M 17 103 L 364 103 L 364 250.425781 L 17 250.425781 Z M 17 103 "/>
</clipPath>
</defs>
<path fill-rule="nonzero" fill="rgb(100%, 100%, 0%)" fill-opacity="0.1" stroke-width="5" stroke-linecap="round" stroke-linejoin="round" stroke="rgb(100%, 0%, 0%)" stroke-opacity="1" stroke-miterlimit="10" d="M 1782.362258 2405.301606 L 1298.583865 879.318945 L 3574.763944 879.318945 Z M 1782.362258 2405.301606 " transform="matrix(0.0996873, 0, 0, -0.0996873, 0.453929, 250.426464)"/>
<g clip-path="url(#clip-0)">
<path fill="none" stroke-width="5" stroke-linecap="round" stroke-linejoin="round" stroke="rgb(0%, 0%, 100%)" stroke-opacity="1" stroke-miterlimit="10" d="M 1304.7751 789.898704 C 1304.7751 805.220051 1304.22651 820.541398 1303.129329 835.82356 C 1302.032148 851.105722 1300.425562 866.348699 1298.270385 881.552491 C 1296.115208 896.717098 1293.411441 911.803335 1290.198269 926.772017 C 1286.985096 941.779884 1283.223333 956.631011 1278.952165 971.364582 C 1274.680997 986.058969 1269.900423 1000.6358 1264.610444 1015.016707 C 1259.320464 1029.397613 1253.52108 1043.582594 1247.21229 1057.532465 C 1240.9035 1071.521521 1234.124489 1085.275467 1226.875259 1098.755118 C 1219.586843 1112.234769 1211.828207 1125.479309 1203.638535 1138.410369 C 1195.448864 1151.34143 1186.788972 1163.998195 1177.698045 1176.341479 C 1168.607118 1188.684764 1159.085155 1200.675384 1149.132157 1212.352523 C 1139.179159 1223.990477 1128.834311 1235.314951 1118.097613 1246.247575 C 1107.360914 1257.180198 1096.232365 1267.720971 1084.751151 1277.869895 C 1073.269937 1288.018818 1061.436058 1297.77589 1049.249513 1307.062743 C 1037.062969 1316.38878 1024.602129 1325.244597 1011.788624 1333.708564 C 998.975119 1342.09416 985.887318 1350.087907 972.525223 1357.572248 C 959.163127 1365.095773 945.565921 1372.149079 931.69442 1378.692979 C 917.862105 1385.236879 903.755493 1391.271374 889.492142 1396.835649 C 875.189606 1402.360738 860.730329 1407.415607 846.075128 1411.96107 C 831.419926 1416.467349 816.64717 1420.503407 801.717673 1423.990875 C 786.788176 1427.478343 771.741124 1430.41722 756.615702 1432.846692 C 741.49028 1435.276164 726.286488 1437.157045 711.004326 1438.489336 C 695.761349 1439.860813 680.440002 1440.683698 665.118655 1440.957993 C 649.797308 1441.193104 634.475961 1440.957993 619.154613 1440.135108 C 603.872451 1439.312222 588.590289 1437.940746 573.386497 1436.059865 C 558.182705 1434.178983 543.057283 1431.749511 528.010231 1428.810634 C 512.96318 1425.832571 498.033683 1422.345104 483.260926 1418.348231 C 468.448984 1414.351357 453.832968 1409.805894 439.334506 1404.751025 C 424.87523 1399.735341 410.572694 1394.171066 396.505267 1388.136572 C 382.437841 1382.062892 368.56634 1375.518992 354.969135 1368.504871 C 341.332744 1361.451566 327.970648 1353.967225 314.882848 1345.973478 C 301.795048 1338.018917 288.981542 1329.594135 276.520703 1320.699133 C 264.020678 1311.843316 251.834133 1302.517279 240.000254 1292.799391 C 228.166374 1283.042319 216.68516 1272.893396 205.556612 1262.352622 C 194.428063 1251.811849 183.691364 1240.879225 173.346516 1229.554751 C 163.001668 1218.269462 153.04867 1206.592323 143.526708 1194.601704 C 134.004745 1182.571899 124.913818 1170.267799 116.253926 1157.611034 C 107.594034 1144.954269 99.404363 1132.023209 91.645727 1118.778669 C 83.926275 1105.573313 76.63786 1092.054478 69.858849 1078.300532 C 63.079839 1064.585771 56.771049 1050.596715 50.971664 1036.411734 C 45.17228 1022.265937 39.882301 1007.845846 35.062542 993.3082 C 30.281968 978.731368 26.0108 964.036981 22.288222 949.14667 C 18.526459 934.295543 15.313286 919.326861 12.609519 904.240624 C 9.944937 889.154387 7.750575 873.98978 6.143989 858.746803 C 4.537403 843.503826 3.440222 828.221664 2.891631 812.900317 C 2.382226 797.57897 2.382226 782.257623 2.891631 766.936276 C 3.440222 751.614929 4.537403 736.332767 6.143989 721.089789 C 7.750575 705.846812 9.944937 690.682205 12.609519 675.595969 C 15.313286 660.509732 18.526459 645.501865 22.288222 630.650738 C 26.0108 615.799611 30.281968 601.06604 35.062542 586.528393 C 39.882301 571.951562 45.17228 557.570655 50.971664 543.385674 C 56.771049 529.200693 63.079839 515.211637 69.858849 501.496876 C 76.63786 487.74293 83.926275 474.263279 91.645727 461.018739 C 99.404363 447.813383 107.594034 434.843138 116.253926 422.225558 C 124.913818 409.568793 134.004745 397.225508 143.526708 385.234889 C 153.04867 373.205085 163.001668 361.56713 173.346516 350.242656 C 183.691364 338.957367 194.428063 328.024744 205.556612 317.48397 C 216.68516 306.904012 228.166374 296.755089 240.000254 287.037201 C 251.834133 277.319314 264.020678 267.993276 276.520703 259.098274 C 288.981542 250.242457 301.795048 241.817676 314.882848 233.823929 C 327.970648 225.869368 341.332744 218.345842 354.969135 211.331722 C 368.56634 204.278416 382.437841 197.734516 396.505267 191.700021 C 410.572694 185.626341 424.87523 180.101252 439.334506 175.046383 C 453.832968 169.991514 468.448984 165.485235 483.260926 161.449177 C 498.033683 157.452304 512.96318 153.964836 528.010231 151.025959 C 543.057283 148.047897 558.182705 145.618425 573.386497 143.737543 C 588.590289 141.856662 603.872451 140.485186 619.154613 139.701485 C 634.475961 138.878599 649.797308 138.604304 665.118655 138.878599 C 680.440002 139.152895 695.761349 139.97578 711.004326 141.308071 C 726.286488 142.679547 741.49028 144.560429 756.615702 146.989901 C 771.741124 149.419373 786.788176 152.35825 801.717673 155.845718 C 816.64717 159.333185 831.419926 163.330059 846.075128 167.875522 C 860.730329 172.381801 875.189606 177.43667 889.492142 183.000944 C 903.755493 188.526034 917.862105 194.599713 931.69442 201.143614 C 945.565921 207.687514 959.163127 214.701634 972.525223 222.22516 C 985.887318 229.748686 998.975119 237.703247 1011.788624 246.128029 C 1024.602129 254.552811 1037.062969 263.447813 1049.249513 272.734665 C 1061.436058 282.060702 1073.269937 291.817775 1084.751151 301.927513 C 1096.232365 312.076436 1107.360914 322.656395 1118.097613 333.589018 C 1128.834311 344.521642 1139.179159 355.806931 1149.132157 367.48407 C 1159.085155 379.122024 1168.607118 391.151829 1177.698045 403.495113 C 1186.788972 415.799213 1195.448864 428.455978 1203.638535 441.387038 C 1211.828207 454.357284 1219.586843 467.562639 1226.875259 481.081475 C 1234.124489 494.561125 1240.9035 508.315071 1247.21229 522.264942 C 1253.52108 536.253998 1259.320464 550.43898 1264.610444 564.819886 C 1269.900423 579.200792 1274.680997 593.738439 1278.952165 608.47201 C 1283.223333 623.205582 1286.985096 638.056709 1290.198269 653.025391 C 1293.411441 668.033258 1296.115208 683.119494 1298.270385 698.284101 C 1300.425562 713.448708 1302.032148 728.691685 1303.129329 743.973848 C 1304.22651 759.25601 1304.7751 774.577357 1304.7751 789.898704 Z M 1304.7751 789.898704 " transform="matrix(0.0996873, 0, 0, -0.0996873, 0.453929, 250.426464)"/>
</g>
<path fill="none" stroke-width="5" stroke-linecap="round" stroke-linejoin="round" stroke="rgb(0%, 0%, 100%)" stroke-opacity="1" stroke-miterlimit="10" d="M 3578.800003 820.854878 C 3578.800003 830.886246 3578.447337 840.878429 3577.742007 850.909797 C 3577.036676 860.90198 3575.97868 870.854978 3574.568019 880.768791 C 3573.157358 890.682603 3571.394032 900.557231 3569.27804 910.353489 C 3567.162048 920.149747 3564.693391 929.867634 3561.911254 939.507152 C 3559.129117 949.107485 3555.994315 958.629447 3552.546032 968.033855 C 3549.058564 977.438262 3545.296801 986.725114 3541.143188 995.855227 C 3537.02876 1004.985339 3532.600851 1013.997896 3527.859462 1022.814528 C 3523.078889 1031.63116 3518.02402 1040.291052 3512.65567 1048.755018 C 3507.287321 1057.218985 3501.644677 1065.487027 3495.688552 1073.559143 C 3489.732427 1081.592074 3483.502007 1089.468266 3477.036477 1097.070162 C 3470.531762 1104.711243 3463.752752 1112.117214 3456.738631 1119.248889 C 3449.724511 1126.380565 3442.436095 1133.316315 3434.912569 1139.938585 C 3427.428228 1146.560856 3419.669592 1152.948016 3411.715031 1159.021696 C 3403.760469 1165.095375 3395.570798 1170.89476 3387.224386 1176.419849 C 3378.83879 1181.944939 3370.296453 1187.156548 3361.558191 1192.054677 C 3352.819929 1196.952806 3343.924927 1201.576639 3334.834 1205.847808 C 3325.782258 1210.118976 3316.573775 1214.076664 3307.247738 1217.720872 C 3297.882516 1221.325895 3288.438923 1224.656622 3278.877776 1227.5955 C 3269.277443 1230.573562 3259.59874 1233.198959 3249.841668 1235.471691 C 3240.084595 1237.744423 3230.249152 1239.664489 3220.374524 1241.271076 C 3210.460711 1242.838477 3200.546899 1244.092398 3190.554716 1244.954468 C 3180.562533 1245.855724 3170.531165 1246.36513 3160.538982 1246.561055 C 3150.507614 1246.717795 3140.515431 1246.561055 3130.484063 1246.012464 C 3120.49188 1245.503059 3110.499697 1244.601803 3100.5467 1243.387067 C 3090.593702 1242.133146 3080.719074 1240.565745 3070.883631 1238.645679 C 3061.048188 1236.686427 3051.291116 1234.413695 3041.612413 1231.788298 C 3031.93371 1229.162901 3022.372563 1226.184839 3012.92897 1222.893296 C 3003.446193 1219.601753 2994.08097 1215.996731 2984.911673 1212.039042 C 2975.703191 1208.081354 2966.612264 1203.771001 2957.717262 1199.186352 C 2948.82226 1194.601704 2940.083998 1189.66439 2931.502476 1184.452781 C 2922.960139 1179.241172 2914.574543 1173.755267 2906.424056 1167.955883 C 2898.27357 1162.156498 2890.319008 1156.043633 2882.560372 1149.695658 C 2874.801736 1143.308498 2867.317395 1136.686228 2860.02898 1129.789662 C 2852.779749 1122.893097 2845.726443 1115.722236 2838.986618 1108.355451 C 2832.207608 1100.94948 2825.702892 1093.347584 2819.472472 1085.471392 C 2813.242053 1077.634386 2807.285928 1069.56227 2801.643283 1061.294228 C 2795.961454 1053.026187 2790.63229 1044.56222 2785.577421 1035.902328 C 2780.483367 1027.242436 2775.741978 1018.425804 2771.314069 1009.452432 C 2766.886161 1000.47906 2762.732548 991.309763 2758.9316 982.062096 C 2755.169837 972.775243 2751.682369 963.370836 2748.547566 953.848873 C 2745.412764 944.326911 2742.630627 934.726578 2740.201155 925.008691 C 2737.732498 915.290803 2735.616506 905.494545 2733.85318 895.619917 C 2732.129038 885.74529 2730.718377 875.831477 2729.621196 865.878479 C 2728.563201 855.886296 2727.897055 845.894113 2727.505205 835.90193 C 2727.152539 825.870562 2727.152539 815.839194 2727.505205 805.847011 C 2727.897055 795.815644 2728.563201 785.823461 2729.621196 775.870463 C 2730.718377 765.87828 2732.129038 755.964467 2733.85318 746.089839 C 2735.616506 736.254396 2737.732498 726.418954 2740.201155 716.740251 C 2742.630627 707.022363 2745.412764 697.382846 2748.547566 687.860883 C 2751.682369 678.338921 2755.169837 668.934513 2758.9316 659.647661 C 2762.732548 650.399994 2766.886161 641.230696 2771.314069 632.257324 C 2775.741978 623.283952 2780.483367 614.46732 2785.577421 605.807428 C 2790.63229 597.147537 2795.961454 588.68357 2801.643283 580.415528 C 2807.285928 572.147487 2813.242053 564.07537 2819.472472 556.238364 C 2825.702892 548.401358 2832.207608 540.760277 2838.986618 533.354306 C 2845.726443 525.98752 2852.779749 518.81666 2860.02898 511.920094 C 2867.317395 505.023529 2874.801736 498.401258 2882.560372 492.053283 C 2890.319008 485.666123 2898.27357 479.592444 2906.424056 473.793059 C 2914.574543 467.954489 2922.960139 462.468585 2931.502476 457.256976 C 2940.083998 452.045367 2948.82226 447.108053 2957.717262 442.523404 C 2966.612264 437.938756 2975.703191 433.667587 2984.911673 429.709899 C 2994.08097 425.752211 3003.446193 422.108003 3012.92897 418.816461 C 3022.372563 415.524918 3031.93371 412.546856 3041.612413 409.921459 C 3051.291116 407.296061 3061.048188 405.02333 3070.883631 403.103263 C 3080.719074 401.144012 3090.593702 399.57661 3100.5467 398.322689 C 3110.499697 397.107953 3120.49188 396.206698 3130.484063 395.697292 C 3140.515431 395.148702 3150.507614 394.991962 3160.538982 395.148702 C 3170.531165 395.344627 3180.562533 395.854032 3190.554716 396.755288 C 3200.546899 397.617359 3210.460711 398.87128 3220.374524 400.438681 C 3230.249152 402.045267 3240.084595 403.965334 3249.841668 406.238066 C 3259.59874 408.549982 3269.277443 411.136194 3278.877776 414.114257 C 3288.438923 417.092319 3297.882516 420.383862 3307.247738 423.988885 C 3316.573775 427.633093 3325.782258 431.590781 3334.834 435.861949 C 3343.924927 440.133117 3352.819929 444.756951 3361.558191 449.65508 C 3370.296453 454.553209 3378.83879 459.764818 3387.224386 465.289907 C 3395.570798 470.814997 3403.760469 476.614381 3411.715031 482.688061 C 3419.669592 488.800926 3427.428228 495.148901 3434.912569 501.771171 C 3442.436095 508.432626 3449.724511 515.329192 3456.738631 522.460867 C 3463.752752 529.631728 3470.531762 536.998514 3477.036477 544.639595 C 3483.502007 552.241491 3489.732427 560.117682 3495.688552 568.189799 C 3501.644677 576.22273 3507.287321 584.529957 3512.65567 592.993923 C 3518.02402 601.45789 3523.078889 610.078597 3527.859462 618.895229 C 3532.600851 627.751046 3537.02876 636.724418 3541.143188 645.85453 C 3545.296801 654.984642 3549.058564 664.271495 3552.546032 673.675902 C 3555.994315 683.080309 3559.129117 692.602272 3561.911254 702.202605 C 3564.693391 711.842122 3567.162048 721.56001 3569.27804 731.356268 C 3571.394032 741.152525 3573.157358 751.027153 3574.568019 760.940966 C 3575.97868 770.854779 3577.036676 780.846962 3577.742007 790.839145 C 3578.447337 800.831327 3578.800003 810.82351 3578.800003 820.854878 Z M 3578.800003 820.854878 " transform="matrix(0.0996873, 0, 0, -0.0996873, 0.453929, 250.426464)"/>
<g clip-path="url(#clip-1)">
<path fill="none" stroke-width="12" stroke-linecap="round" stroke-linejoin="round" stroke="rgb(100%, 0%, 0%)" stroke-opacity="1" stroke-miterlimit="10" d="M 173.228961 -82.556011 L 3638.51799 1468.03485 " transform="matrix(0.0996873, 0, 0, -0.0996873, 0.453929, 250.426464)"/>
</g>
<path fill="none" stroke-width="5" stroke-linecap="round" stroke-linejoin="round" stroke="rgb(100%, 0%, 0%)" stroke-opacity="1" stroke-miterlimit="10" d="M 668.253457 138.956969 L 2255.090471 2002.832152 " transform="matrix(0.0996873, 0, 0, -0.0996873, 0.453929, 250.426464)"/>
<path fill="none" stroke-width="5" stroke-linecap="round" stroke-linejoin="round" stroke="rgb(100%, 0%, 0%)" stroke-opacity="1" stroke-miterlimit="10" d="M 3574.763944 879.318945 L 1506.460455 1535.041253 " transform="matrix(0.0996873, 0, 0, -0.0996873, 0.453929, 250.426464)"/>
<path fill="none" stroke-width="5" stroke-linecap="round" stroke-linejoin="round" stroke="rgb(100%, 0%, 0%)" stroke-opacity="1" stroke-miterlimit="10" d="M 1129.265347 345.226972 L 1782.362258 2405.301606 " transform="matrix(0.0996873, 0, 0, -0.0996873, 0.453929, 250.426464)"/>
<path fill="none" stroke-width="12" stroke-linecap="round" stroke-linejoin="round" stroke="rgb(0%, 0%, 0%)" stroke-opacity="1" stroke-dasharray="0 47.889" stroke-miterlimit="10" d="M 2726.878244 1402.870143 C 2726.878244 1417.40779 2726.368839 1431.945436 2725.350028 1446.443898 C 2724.331217 1460.903174 2722.763816 1475.362451 2720.726194 1489.743357 C 2718.688573 1504.124263 2716.141546 1518.465985 2713.085113 1532.650966 C 2710.028681 1546.875132 2706.462843 1560.942558 2702.426785 1574.892429 C 2698.390727 1588.8423 2693.845263 1602.674616 2688.829579 1616.311007 C 2683.813895 1629.947398 2678.288806 1643.387863 2672.332681 1656.632404 C 2666.337371 1669.876944 2659.911026 1682.92556 2653.014461 1695.69988 C 2646.117895 1708.4742 2638.790295 1721.052595 2630.992473 1733.317509 C 2623.233837 1745.582424 2615.004981 1757.573044 2606.384274 1769.289368 C 2597.763567 1780.966507 2588.75101 1792.369351 2579.307418 1803.41953 C 2569.90301 1814.469709 2560.067567 1825.206407 2549.879459 1835.551255 C 2539.691351 1845.935288 2529.150578 1855.927471 2518.296324 1865.527804 C 2507.402886 1875.167322 2496.156782 1884.375804 2484.636383 1893.231621 C 2473.076799 1902.048253 2461.242919 1910.473034 2449.09556 1918.466781 C 2436.987385 1926.460527 2424.56573 1934.023238 2411.908965 1941.115729 C 2399.213015 1948.247404 2386.281955 1954.90886 2373.15497 1961.100095 C 2360.027984 1967.330514 2346.665889 1973.051529 2333.147053 1978.302323 C 2319.589032 1983.592302 2305.874272 1988.372876 2291.963586 1992.644044 C 2278.092085 1996.954398 2264.063843 2000.755346 2249.918047 2004.046888 C 2235.772251 2007.377616 2221.5089 2010.159753 2207.167179 2012.47167 C 2192.825457 2014.783587 2178.405366 2016.546913 2163.946089 2017.840019 C 2149.447628 2019.133125 2134.949166 2019.877641 2120.41152 2020.151936 C 2105.873873 2020.387046 2091.375412 2020.151936 2076.837766 2019.368236 C 2062.339304 2018.62372 2047.840843 2017.330614 2033.420751 2015.528103 C 2019.00066 2013.764776 2004.658938 2011.452859 1990.395587 2008.631537 C 1976.171421 2005.8494 1961.98644 2002.557857 1947.997384 1998.717724 C 1933.969143 1994.916776 1920.058457 1990.645608 1906.343696 1985.865034 C 1892.628935 1981.08446 1879.070914 1975.794481 1865.748004 1970.073467 C 1852.385908 1964.352452 1839.258923 1958.122032 1826.327863 1951.460577 C 1813.435987 1944.799122 1800.740037 1937.667446 1788.357568 1930.104735 C 1775.935913 1922.542024 1763.788553 1914.587463 1751.954674 1906.162681 C 1740.120794 1897.737899 1728.56121 1888.921267 1717.354291 1879.6736 C 1706.108188 1870.465118 1695.214749 1860.8256 1684.673976 1850.833417 C 1674.133202 1840.802049 1663.945094 1830.457201 1654.148836 1819.720503 C 1644.352579 1809.022989 1634.908986 1797.972811 1625.896429 1786.569967 C 1616.844687 1775.206308 1608.22398 1763.489983 1600.034309 1751.499364 C 1591.805452 1739.508744 1584.046816 1727.24383 1576.68003 1714.70462 C 1569.352429 1702.16541 1562.455864 1689.351905 1556.029519 1676.342474 C 1549.603174 1663.293859 1543.607864 1650.049319 1538.12196 1636.608853 C 1532.59687 1623.168387 1527.581186 1609.531997 1523.035723 1595.738866 C 1518.529444 1581.945735 1514.454201 1567.956679 1510.927548 1553.889253 C 1507.36171 1539.782642 1504.305278 1525.59766 1501.758251 1511.295124 C 1499.211224 1496.953403 1497.134417 1482.572496 1495.606201 1468.11322 C 1494.077985 1453.693128 1493.059174 1439.194667 1492.549769 1424.657021 C 1492.040363 1410.158559 1492.040363 1395.620913 1492.549769 1381.083266 C 1493.059174 1366.584805 1494.077985 1352.086343 1495.606201 1337.627067 C 1497.134417 1323.16779 1499.211224 1308.786884 1501.758251 1294.484348 C 1504.305278 1280.181811 1507.36171 1265.957645 1510.927548 1251.890219 C 1514.454201 1237.783608 1518.529444 1223.833737 1523.035723 1210.040606 C 1527.581186 1196.247475 1532.59687 1182.571899 1538.12196 1169.131434 C 1543.607864 1155.690968 1549.603174 1142.446427 1556.029519 1129.436997 C 1562.455864 1116.388382 1569.352429 1103.614062 1576.68003 1091.074852 C 1584.046816 1078.535642 1591.805452 1066.231542 1600.034309 1054.240923 C 1608.22398 1042.250303 1616.844687 1030.573164 1625.896429 1019.17032 C 1634.908986 1007.806661 1644.352579 996.717297 1654.148836 986.019784 C 1663.945094 975.283085 1674.133202 964.938237 1684.673976 954.946054 C 1695.214749 944.953871 1706.108188 935.314354 1717.354291 926.066686 C 1728.56121 916.858204 1740.120794 908.041572 1751.954674 899.616791 C 1763.788553 891.192009 1775.935913 883.198263 1788.357568 875.635552 C 1800.740037 868.072841 1813.435987 860.98035 1826.327863 854.27971 C 1839.258923 847.618254 1852.385908 841.42702 1865.748004 835.706005 C 1879.070914 829.945805 1892.628935 824.695011 1906.343696 819.914438 C 1920.058457 815.133864 1933.969143 810.82351 1947.997384 807.022562 C 1961.98644 803.221614 1976.171421 799.930072 1990.395587 797.10875 C 2004.658938 794.326612 2019.00066 792.014696 2033.420751 790.212184 C 2047.840843 788.448858 2062.339304 787.155752 2076.837766 786.372051 C 2091.375412 785.627535 2105.873873 785.35324 2120.41152 785.627535 C 2134.949166 785.862646 2149.447628 786.646346 2163.946089 787.900267 C 2178.405366 789.193373 2192.825457 790.995885 2207.167179 793.307802 C 2221.5089 795.580533 2235.772251 798.401856 2249.918047 801.693398 C 2264.063843 804.984941 2278.092085 808.785889 2291.963586 813.096242 C 2305.874272 817.406596 2319.589032 822.187169 2333.147053 827.437964 C 2346.665889 832.688758 2360.027984 838.448957 2373.15497 844.640192 C 2386.281955 850.831427 2399.213015 857.532067 2411.908965 864.624558 C 2424.56573 871.756234 2436.987385 879.318945 2449.09556 887.312691 C 2461.242919 895.306437 2473.076799 903.692034 2484.636383 912.547851 C 2496.156782 921.364483 2507.402886 930.61215 2518.296324 940.212483 C 2529.150578 949.852 2539.691351 959.844183 2549.879459 970.189031 C 2560.067567 980.573065 2569.90301 991.309763 2579.307418 1002.359942 C 2588.75101 1013.41012 2597.763567 1024.773779 2606.384274 1036.490104 C 2615.004981 1048.167243 2623.233837 1060.197047 2630.992473 1072.461962 C 2638.790295 1084.726877 2646.117895 1097.266087 2653.014461 1110.040407 C 2659.911026 1122.853912 2666.337371 1135.863342 2672.332681 1149.147068 C 2678.288806 1162.352423 2683.813895 1175.832074 2688.829579 1189.468465 C 2693.845263 1203.104855 2698.390727 1216.897986 2702.426785 1230.847857 C 2706.462843 1244.797728 2710.028681 1258.90434 2713.085113 1273.089321 C 2716.141546 1287.313487 2718.688573 1301.616023 2720.726194 1315.99693 C 2722.763816 1330.377836 2724.331217 1344.837112 2725.350028 1359.335574 C 2726.368839 1373.834035 2726.878244 1388.332497 2726.878244 1402.870143 Z M 2726.878244 1402.870143 " transform="matrix(0.0996873, 0, 0, -0.0996873, 0.453929, 250.426464)"/>
<path fill="none" stroke-width="30" stroke-linecap="round" stroke-linejoin="round" stroke="rgb(0%, 0%, 0%)" stroke-opacity="1" stroke-miterlimit="10" d="M 1782.362258 2405.301606 L 1782.362258 2405.301606 " transform="matrix(0.0996873, 0, 0, -0.0996873, 0.453929, 250.426464)"/>
<path fill="none" stroke-width="30" stroke-linecap="round" stroke-linejoin="round" stroke="rgb(0%, 0%, 0%)" stroke-opacity="1" stroke-miterlimit="10" d="M 1298.583865 879.318945 L 1298.583865 879.318945 " transform="matrix(0.0996873, 0, 0, -0.0996873, 0.453929, 250.426464)"/>
<path fill="none" stroke-width="30" stroke-linecap="round" stroke-linejoin="round" stroke="rgb(0%, 0%, 0%)" stroke-opacity="1" stroke-miterlimit="10" d="M 3574.763944 879.318945 L 3574.763944 879.318945 " transform="matrix(0.0996873, 0, 0, -0.0996873, 0.453929, 250.426464)"/>
<path fill="none" stroke-width="30" stroke-linecap="round" stroke-linejoin="round" stroke="rgb(0%, 0%, 0%)" stroke-opacity="1" stroke-miterlimit="10" d="M 1782.362258 1447.541079 L 1782.362258 1447.541079 " transform="matrix(0.0996873, 0, 0, -0.0996873, 0.453929, 250.426464)"/>
<path fill="none" stroke-width="30" stroke-linecap="round" stroke-linejoin="round" stroke="rgb(0%, 0%, 0%)" stroke-opacity="1" stroke-miterlimit="10" d="M 1782.362258 879.318945 L 1782.362258 879.318945 " transform="matrix(0.0996873, 0, 0, -0.0996873, 0.453929, 250.426464)"/>
<path fill="none" stroke-width="30" stroke-linecap="round" stroke-linejoin="round" stroke="rgb(0%, 0%, 0%)" stroke-opacity="1" stroke-miterlimit="10" d="M 2255.090471 2002.832152 L 2255.090471 2002.832152 " transform="matrix(0.0996873, 0, 0, -0.0996873, 0.453929, 250.426464)"/>
<path fill="none" stroke-width="30" stroke-linecap="round" stroke-linejoin="round" stroke="rgb(0%, 0%, 0%)" stroke-opacity="1" stroke-miterlimit="10" d="M 1506.460455 1535.041253 L 1506.460455 1535.041253 " transform="matrix(0.0996873, 0, 0, -0.0996873, 0.453929, 250.426464)"/>
<path fill="none" stroke-width="30" stroke-linecap="round" stroke-linejoin="round" stroke="rgb(0%, 0%, 0%)" stroke-opacity="1" stroke-miterlimit="10" d="M 1129.265347 345.226972 L 1129.265347 345.226972 " transform="matrix(0.0996873, 0, 0, -0.0996873, 0.453929, 250.426464)"/>
<path fill="none" stroke-width="30" stroke-linecap="round" stroke-linejoin="round" stroke="rgb(0%, 0%, 0%)" stroke-opacity="1" stroke-miterlimit="10" d="M 668.253457 138.956969 L 668.253457 138.956969 " transform="matrix(0.0996873, 0, 0, -0.0996873, 0.453929, 250.426464)"/>
<path fill="none" stroke-width="30" stroke-linecap="round" stroke-linejoin="round" stroke="rgb(0%, 0%, 0%)" stroke-opacity="1" stroke-miterlimit="10" d="M 3143.454309 1246.52187 L 3143.454309 1246.52187 " transform="matrix(0.0996873, 0, 0, -0.0996873, 0.453929, 250.426464)"/>
<path fill="none" stroke-width="30" stroke-linecap="round" stroke-linejoin="round" stroke="rgb(0%, 0%, 0%)" stroke-opacity="1" stroke-miterlimit="10" d="M 2842.003865 1111.646993 L 2842.003865 1111.646993 " transform="matrix(0.0996873, 0, 0, -0.0996873, 0.453929, 250.426464)"/>
<path fill="none" stroke-width="30" stroke-linecap="round" stroke-linejoin="round" stroke="rgb(0%, 0%, 0%)" stroke-opacity="1" stroke-miterlimit="10" d="M 653.637441 789.898704 L 653.637441 789.898704 " transform="matrix(0.0996873, 0, 0, -0.0996873, 0.453929, 250.426464)"/>
<path fill="none" stroke-width="30" stroke-linecap="round" stroke-linejoin="round" stroke="rgb(0%, 0%, 0%)" stroke-opacity="1" stroke-miterlimit="10" d="M 3153.015456 820.854878 L 3153.015456 820.854878 " transform="matrix(0.0996873, 0, 0, -0.0996873, 0.453929, 250.426464)"/>
<path fill="none" stroke-width="30" stroke-linecap="round" stroke-linejoin="round" stroke="rgb(0%, 0%, 0%)" stroke-opacity="1" stroke-miterlimit="10" d="M 1951.876702 805.964567 L 1951.876702 805.964567 " transform="matrix(0.0996873, 0, 0, -0.0996873, 0.453929, 250.426464)"/>
<path fill="none" stroke-width="5" stroke-linecap="round" stroke-linejoin="round" stroke="rgb(0%, 0%, 100%)" stroke-opacity="1" stroke-miterlimit="10" d="M 653.637441 789.898704 L 3153.015456 820.854878 " transform="matrix(0.0996873, 0, 0, -0.0996873, 0.453929, 250.426464)"/>
<path fill="none" stroke-width="12" stroke-linecap="round" stroke-linejoin="round" stroke="rgb(0%, 0%, 100%)" stroke-opacity="1" stroke-miterlimit="10" d="M 1959.752893 167.953892 L 1943.961325 1444.014426 " transform="matrix(0.0996873, 0, 0, -0.0996873, 0.453929, 250.426464)"/>
<g fill="rgb(0%, 0%, 0%)" fill-opacity="1">
<use xlink:href="#glyph-0-0" x="170.471618" y="8.078659"/>
</g>
<g fill="rgb(0%, 0%, 0%)" fill-opacity="1">
<use xlink:href="#glyph-0-1" x="118.840574" y="166.161785"/>
</g>
<g fill="rgb(0%, 0%, 0%)" fill-opacity="1">
<use xlink:href="#glyph-0-2" x="358.949403" y="171.697421"/>
</g>
<g fill="rgb(0%, 0%, 0%)" fill-opacity="1">
<use xlink:href="#glyph-0-3" x="173.596815" y="103.09262"/>
</g>
<g fill="rgb(0%, 0%, 0%)" fill-opacity="1">
<use xlink:href="#glyph-0-1" x="108.61166" y="225.781769"/>
</g>
<g fill="rgb(0%, 0%, 0%)" fill-opacity="1">
<use xlink:href="#glyph-1-0" x="116.14503" y="227.271098"/>
</g>
<g fill="rgb(0%, 0%, 0%)" fill-opacity="1">
<use xlink:href="#glyph-0-1" x="52.594375" y="243.859065"/>
</g>
<g fill="rgb(0%, 0%, 0%)" fill-opacity="1">
<use xlink:href="#glyph-1-1" x="60.127744" y="245.34939"/>
</g>
<g fill="rgb(0%, 0%, 0%)" fill-opacity="1">
<use xlink:href="#glyph-0-2" x="308.03511" y="121.645424"/>
</g>
<g fill="rgb(0%, 0%, 0%)" fill-opacity="1">
<use xlink:href="#glyph-1-0" x="315.133843" y="123.134752"/>
</g>
<g fill="rgb(0%, 0%, 0%)" fill-opacity="1">
<use xlink:href="#glyph-0-2" x="279.529526" y="149.382418"/>
</g>
<g fill="rgb(0%, 0%, 0%)" fill-opacity="1">
<use xlink:href="#glyph-1-1" x="286.627262" y="150.871747"/>
</g>
<g fill="rgb(0%, 0%, 0%)" fill-opacity="1">
<use xlink:href="#glyph-0-4" x="48.166265" y="174.331159"/>
</g>
<g fill="rgb(0%, 0%, 0%)" fill-opacity="1">
<use xlink:href="#glyph-2-0" x="55.741503" y="175.820488"/>
</g>
<g fill="rgb(0%, 0%, 0%)" fill-opacity="1">
<use xlink:href="#glyph-0-4" x="317.795494" y="171.245837"/>
</g>
<g fill="rgb(0%, 0%, 0%)" fill-opacity="1">
<use xlink:href="#glyph-2-1" x="325.370732" y="172.735166"/>
</g>
</svg>
